<?xml version="1.0" encoding="UTF-8" standalone="no"?><!DOCTYPE svg PUBLIC "-//W3C//DTD SVG 1.1//EN" "http://www.w3.org/Graphics/SVG/1.1/DTD/svg11.dtd"><svg width="100%" height="100%" viewBox="0 0 3625 2667" version="1.1" xmlns="http://www.w3.org/2000/svg" xmlns:xlink="http://www.w3.org/1999/xlink" xml:space="preserve" xmlns:serif="http://www.serif.com/" style="fill-rule:evenodd;clip-rule:evenodd;stroke-linejoin:round;stroke-miterlimit:2;"><path d="M1700.241,918.869c70.425,-13.031 68.81,-19.498 148.423,0.07c93.589,2.782 164.789,20.923 251.559,35.132c454.371,74.411 727.039,437.329 1088.764,675.951c35.6,23.476 82.956,43.035 115.909,70.447c-49.576,36.096 -88.967,61.086 -137.242,100.951c-76.383,63.058 -142.335,131.255 -214.724,198.402c-159.63,148.082 -337.071,292.144 -536.362,382.771c-66.602,30.306 -155.906,57.943 -226.412,78.379c-152.855,44.304 -291.062,65.57 -450.625,59.581c-3.275,-11.463 -1.391,-7.582 -10.117,-16.039c-6.887,-20.212 -3.006,-244.582 -2.849,-278.59c-2.871,-85.378 2.782,-175.878 -0.314,-260.545c2.557,1.209 9.242,4.572 11.53,5.339c1.234,-38.122 2.064,-92.88 13.594,-130.36c1.727,-5.604 3.634,-5.24 8.435,-6.941c13.101,1.839 15.86,2.145 28.893,-0.052l6.528,2.095c8.614,21.544 6.64,120.566 20.234,134.519c-3.455,5.662 -5.115,13.457 -5.07,20.032c0.695,144.611 -4.621,293.003 1.548,437.289c107.586,-4.801 227.623,-36.677 327.403,-69.339c174.346,-57.046 324.756,-142.716 462.604,-262.438c19.987,-17.385 39.392,-38.277 59.76,-56.016c83.606,-73.453 170.106,-143.537 259.298,-210.088c33.29,-24.364 94.486,-74.456 125.757,-92.494c-29.162,-34.237 -84.907,-71.336 -122.123,-99.363c-39.279,-30.03 -77.796,-61.059 -115.483,-93.059c-231.167,-195.76 -368.544,-361.588 -668.131,-458.402c-448.391,-144.91 -880.013,-17.444 -1225.927,290.25c-84.499,75.162 -171.649,153.111 -259.464,224.815c-41.397,32.994 -127.491,91.323 -158.766,124.864c194.089,124.774 352.025,301.738 534.325,441.322c162.064,124.074 375.117,202.342 573.149,245.412c16.775,3.657 93.059,11.755 99.313,19.651l-0.081,13.953c14.417,14.918 15.786,52.537 9.482,70.752c-4.015,2.939 -4.805,2.714 -9.617,3.701c-30.86,0.135 -48.652,-1.234 -79.108,-5.855c-72.235,-7.605 -169.998,-27.906 -239.851,-46.592c-70.566,-18.866 -163.271,-48.499 -229.889,-78.11c-154.91,-69.855 -298.396,-169.254 -427.414,-279.083c-140.136,-119.283 -266.609,-253.196 -416.579,-360.729c-24.041,-17.235 -50.507,-32.271 -74.983,-49.551c27.072,-19.969 69.469,-39.869 99.015,-58.645c51.371,-32.644 105.823,-69.449 153.641,-107.053c72.457,-58.026 144.376,-116.723 215.747,-176.08c115.306,-96.653 240.939,-201.626 372.67,-274.512c182.917,-101.207 415.283,-158.63 623.551,-165.743Z" style="fill:#364537;fill-rule:nonzero;"/><path d="M1726.249,1965.379c2.557,1.209 9.242,4.572 11.53,5.339l-0.426,16.477l2.692,-0.112c-7.582,142.269 3.724,293.689 -0.987,436.966c-0.875,26.74 -0.695,59.603 0.83,86.298l-0.359,10.207c-3.275,-11.463 -1.391,-7.582 -10.117,-16.039c-6.887,-20.212 -3.006,-244.582 -2.849,-278.59c-2.871,-85.378 2.782,-175.878 -0.314,-260.545Z" style="fill:#c2c5c1;fill-rule:nonzero;"/><path d="M1726.249,1965.379c2.557,1.209 9.242,4.572 11.53,5.339l-0.426,16.477c-2.984,36.112 0.785,76.152 -2.288,112.143l-1.525,-11.418l-4.711,94.217c-0.538,11.508 -0.606,33.335 -2.266,43.788c-2.871,-85.378 2.782,-175.878 -0.314,-260.545Z" style="fill:#d5d6d3;fill-rule:nonzero;"/><path d="M1740.045,1987.082c4.262,7.418 -0.022,56.635 2.759,69.326l2.131,0.565c2.737,-11.9 1.077,-33.306 3.387,-40.39c4.285,97.178 1.122,213.917 1.368,313.45c0.202,39.863 0.09,79.725 -0.336,119.61c-0.09,12.046 0.292,45.112 -1.638,54.803c-2.378,1.839 -5.384,4.285 -7.829,5.9c-1.525,-26.695 -1.705,-59.558 -0.83,-86.298c4.711,-143.277 -6.595,-294.696 0.987,-436.966Z" style="fill:#060d08;fill-rule:nonzero;"/><path d="M1700.241,918.869c70.425,-13.031 68.81,-19.498 148.423,0.07c-47.602,0.933 -100.116,-0.276 -148.423,-0.07Z" style="fill:#d5d6d3;fill-rule:nonzero;"/><path d="M1703.577,2446.369c14.417,14.918 15.786,52.537 9.482,70.752c-4.015,2.939 -4.805,2.714 -9.617,3.701l0.458,-23.24l-0.323,-51.214Z" style="fill:#d5d6d3;fill-rule:nonzero;"/><path d="M1624.334,2514.967c31.729,-7.134 44.854,-4.823 75.806,-6.259l3.76,-11.127l-0.458,23.24c-30.86,0.135 -48.652,-1.234 -79.108,-5.855Z" style="fill:#5a6258;fill-rule:nonzero;"/><path d="M1759.808,1833.417c-4.801,1.7 -6.707,1.337 -8.435,6.941c-11.53,37.48 -12.36,92.238 -13.594,130.36c-2.288,-0.767 -8.973,-4.13 -11.53,-5.339c-5.653,-13.518 -21.917,-33.234 -28.536,-47.375c-26.401,-56.402 -50.132,-121.596 -98.712,-163.986c-59.094,-51.566 -134.068,-83.846 -213.152,-80.344c-5.516,147.223 45.617,277.722 201.518,320.933c75.272,20.865 92.164,19.967 88.256,106.503c-1.898,42.039 3.208,86.455 -4.26,128.74c-94.286,9.018 -210.247,-54.354 -279.566,-112.813c-86.43,-72.897 -162.531,-216.236 -172.749,-328.321c-20.53,-22.433 -11.203,-91.545 0.265,-118.332c39.163,-225.178 173.846,-404.322 402.151,-465.679c28.624,-7.692 50.868,-14.397 80.968,-16.246c43.894,-15.153 94.928,-16.012 138.671,0.128c144.982,20.965 275.763,98.515 363.699,215.675c84.571,113.096 122.504,268.145 102.158,407.649c-19.494,135.286 -91.749,257.366 -200.951,339.559c-69.092,51.371 -151.442,82.26 -238.301,75.373l-1.122,-113.845c-0.808,-95.693 -5.743,-92.732 88.048,-119.213c145.206,-41.007 192.067,-160.431 193.638,-298.64c0.09,-7.607 0.067,-15.214 -0.112,-22.818c-129.526,4.935 -240.948,79.227 -285.499,202.862c-15.748,43.714 -20.144,56.115 -47.198,94.791c-13.594,-13.953 -11.62,-112.975 -20.234,-134.519l-6.528,-2.095c2.086,-39.495 39.997,-92.404 59.087,-126.865c68.89,-124.4 9.31,-267.248 -66.714,-373.419c-28.086,-7.658 -70.348,89.784 -81.394,109.787c-40.704,73.677 -53.914,188.904 -7.741,263.105c29.981,48.185 49.296,72.19 67.87,127.444Z" style="fill:#909b76;"/><path d="M1702.433,1188.459c43.894,-15.153 94.928,-16.012 138.671,0.128c-46.233,-0.976 -92.445,-1.016 -138.671,-0.128Z" style="fill:#d5d6d3;fill-rule:nonzero;"/><path d="M1219.314,1670.384c0.002,36.72 1.288,82.352 -0.265,118.332c-20.53,-22.433 -11.203,-91.545 0.265,-118.332Z" style="fill:#d5d6d3;fill-rule:nonzero;"/><path d="M1765.506,71.089c41.702,4.731 44.932,32.888 44.686,67.735c-1.032,146.487 3.971,293.835 1.234,440.268c-12.63,16.275 -15.905,19.631 -34.905,27.278c-26.291,-1.366 -36.004,-12.614 -50.002,-32.974c-1.054,-55.168 -4.666,-447.816 3.275,-469.183c6.281,-16.865 20.122,-25.831 35.713,-33.124Z" style="fill:#909b76;fill-rule:nonzero;"/><path d="M2349.56,275.748c46.682,-0.884 60.411,35.351 40.693,73.435c-54.264,104.769 -100.408,214.937 -162.636,315.247c-4.217,6.793 -16.398,11.236 -23.711,14.155c-18.552,-0.514 -33.088,-5.884 -44.529,-21.241c-15.793,-21.185 12.046,-60.61 22.657,-81.132l62.968,-120.582l53.502,-106.2c14.604,-29.133 22.231,-57.142 51.056,-73.682Z" style="fill:#909b76;fill-rule:nonzero;"/><path d="M1174.797,277.864c27.46,-3.856 41.57,6.992 53.854,31.078c36.985,72.522 71.614,146.159 107.811,219.103c16.311,32.873 42.918,78.736 49.877,113.125c-5.173,16.69 -7.187,25.25 -22.569,34.118l-42.317,-0.256c-26.594,-32.861 -56.252,-103.585 -76.037,-143.784l-59.518,-120.97c-20.122,-41.507 -62.802,-101.31 -11.1,-132.415Z" style="fill:#909b76;fill-rule:nonzero;"/><path d="M811.12,638.886c4.904,0.287 10.732,0.931 15.561,1.862c5.893,1.101 11.503,3.387 16.488,6.721c53.419,35.181 105.832,88.537 160.283,124.326c40.401,26.553 63.937,64.893 11.712,95.91c-0.366,0.016 -0.731,0.04 -1.097,0.049c-0.608,0.013 -1.216,0.004 -1.824,0.013c-3.778,0.067 -7.858,0.258 -11.573,-0.556c-22.273,-4.881 -205.516,-150.565 -216.869,-170.745c-3.984,-7.08 -4.379,-18.24 -2.228,-26.067c4.365,-15.891 15.976,-23.886 29.546,-31.513Z" style="fill:#909b76;fill-rule:nonzero;"/><path d="M2731.295,639.324c2.064,-0.148 4.15,-0.233 6.214,-0.256c38.517,-0.271 39.414,24.335 38.427,54.376c-21.67,25.779 -188.232,159.89 -215.711,173.451c-38.988,4.379 -55.431,-38.254 -40.423,-60.22c34.277,-50.231 117.098,-94.129 164.947,-135.015c13.482,-11.515 33.335,-26.369 46.548,-32.337Z" style="fill:#909b76;fill-rule:nonzero;"/></svg>